<?xml version="1.0" standalone="no"?>
<!DOCTYPE svg PUBLIC "-//W3C//DTD SVG 20010904//EN"
 "http://www.w3.org/TR/2001/REC-SVG-20010904/DTD/svg10.dtd">
<svg version="1.0" xmlns="http://www.w3.org/2000/svg"
 width="349.000000pt" height="349.000000pt" viewBox="0 0 349.000000 349.000000"
 preserveAspectRatio="xMidYMid meet">
<metadata>
Created by potrace 1.14, written by Peter Selinger 2001-2017
</metadata>
<g transform="translate(0.000000,349.000000) scale(0.100000,-0.100000)"
fill="#000000" stroke="none">
<path d="M770 2345 c-4 -5 -19 -55 -34 -110 -94 -368 -139 -532 -148 -542 -6
-7 -8 -13 -5 -13 7 0 -24 -133 -72 -308 -24 -84 -40 -159 -37 -167 4 -13 129
-15 893 -15 488 0 928 -1 976 -1 49 -1 92 2 96 7 9 10 37 103 98 324 l38 135
120 5 120 5 46 185 c88 352 120 492 114 499 -11 11 -2196 7 -2205 -4z"/>
</g>
</svg>
